<svg width="29" height="28" viewBox="0 0 29 28" fill="none" xmlns="http://www.w3.org/2000/svg">
<g clip-path="url(#clip0_16_36)">
<path d="M21.4102 17.263C20.9444 18.7335 20.076 19.9184 18.8047 20.8177C17.5334 21.717 16.0985 22.1667 14.5 22.1667C12.9015 22.1667 11.4666 21.717 10.1953 20.8177C8.92405 19.9184 8.05556 18.7335 7.58984 17.263C7.48915 16.9592 7.51432 16.6645 7.66536 16.3789C7.81641 16.0933 8.05556 15.9019 8.38281 15.8047C8.69748 15.7075 9.00271 15.7318 9.2985 15.8776C9.59429 16.0234 9.79253 16.2543 9.89323 16.5703C10.2079 17.5425 10.79 18.3294 11.6396 18.931C12.4893 19.5326 13.4427 19.8333 14.5 19.8333C15.5573 19.8333 16.5107 19.5326 17.3604 18.931C18.21 18.3294 18.7921 17.5425 19.1068 16.5703C19.2075 16.2543 19.4089 16.0234 19.7109 15.8776C20.013 15.7318 20.3214 15.7075 20.6361 15.8047C20.9507 15.9019 21.1836 16.0933 21.3346 16.3789C21.4857 16.6645 21.5109 16.9592 21.4102 17.263ZM12.0833 9.33333C12.0833 9.97743 11.8473 10.5273 11.3753 10.9831C10.9033 11.4388 10.3338 11.6667 9.66667 11.6667C8.99957 11.6667 8.43001 11.4388 7.95801 10.9831C7.486 10.5273 7.25 9.97743 7.25 9.33333C7.25 8.68924 7.486 8.13932 7.95801 7.68359C8.43001 7.22786 8.99957 7 9.66667 7C10.3338 7 10.9033 7.22786 11.3753 7.68359C11.8473 8.13932 12.0833 8.68924 12.0833 9.33333ZM21.75 9.33333C21.75 9.97743 21.514 10.5273 21.042 10.9831C20.57 11.4388 20.0004 11.6667 19.3333 11.6667C18.6662 11.6667 18.0967 11.4388 17.6247 10.9831C17.1527 10.5273 16.9167 9.97743 16.9167 9.33333C16.9167 8.68924 17.1527 8.13932 17.6247 7.68359C18.0967 7.22786 18.6662 7 19.3333 7C20.0004 7 20.57 7.22786 21.042 7.68359C21.514 8.13932 21.75 8.68924 21.75 9.33333ZM26.5833 14C26.5833 12.4201 26.2624 10.9102 25.6204 9.47005C24.9785 8.02995 24.1195 6.79036 23.0433 5.7513C21.9671 4.71224 20.6833 3.88281 19.1917 3.26302C17.7002 2.64323 16.1363 2.33333 14.5 2.33333C12.8637 2.33333 11.2998 2.64323 9.80827 3.26302C8.31673 3.88281 7.03288 4.71224 5.95671 5.7513C4.88053 6.79036 4.02148 8.02995 3.37956 9.47005C2.73763 10.9102 2.41667 12.4201 2.41667 14C2.41667 15.5799 2.73763 17.0898 3.37956 18.5299C4.02148 19.9701 4.88053 21.2096 5.95671 22.2487C7.03288 23.2878 8.31673 24.1172 9.80827 24.737C11.2998 25.3568 12.8637 25.6667 14.5 25.6667C16.1363 25.6667 17.7002 25.3568 19.1917 24.737C20.6833 24.1172 21.9671 23.2878 23.0433 22.2487C24.1195 21.2096 24.9785 19.9701 25.6204 18.5299C26.2624 17.0898 26.5833 15.5799 26.5833 14ZM29 14C29 16.5399 28.3518 18.8824 27.0553 21.0273C25.7589 23.1723 23.9999 24.8707 21.7783 26.1224C19.5567 27.3741 17.1306 28 14.5 28C11.8694 28 9.44325 27.3741 7.22168 26.1224C5.00011 24.8707 3.2411 23.1723 1.94466 21.0273C0.648221 18.8824 0 16.5399 0 14C0 11.4601 0.648221 9.11762 1.94466 6.97266C3.2411 4.82769 5.00011 3.12934 7.22168 1.8776C9.44325 0.625868 11.8694 0 14.5 0C17.1306 0 19.5567 0.625868 21.7783 1.8776C23.9999 3.12934 25.7589 4.82769 27.0553 6.97266C28.3518 9.11762 29 11.4601 29 14Z" fill="#545454" fill-opacity="0.58"/>
</g>
<defs>
<clipPath id="clip0_16_36">
<rect width="29" height="28" fill="white"/>
</clipPath>
</defs>
</svg>
